# Blender 4.0.2
# www.blender.org
mtllib icosahedron.mtl
o Icosahedron
v 0.000000 -1.000000 0.000000
v 0.723600 -0.447215 0.525720
v -0.276385 -0.447215 0.850640
v -0.894425 -0.447215 0.000000
v -0.276385 -0.447215 -0.850640
v 0.723600 -0.447215 -0.525720
v 0.276385 0.447215 0.850640
v -0.723600 0.447215 0.525720
v -0.723600 0.447215 -0.525720
v 0.276385 0.447215 -0.850640
v 0.894425 0.447215 -0.000000
v 0.000000 1.000000 -0.000000
vn 0.1876 -0.7947 0.5774
vn 0.6071 -0.7947 -0.0000
vn -0.4911 -0.7947 0.3568
vn -0.4911 -0.7947 -0.3568
vn 0.1876 -0.7947 -0.5774
vn 0.9822 -0.1876 -0.0000
vn 0.3035 -0.1876 0.9342
vn -0.7946 -0.1876 0.5774
vn -0.7946 -0.1876 -0.5774
vn 0.3035 -0.1876 -0.9342
vn 0.7946 0.1876 0.5774
vn -0.3035 0.1876 0.9342
vn -0.9822 0.1876 -0.0000
vn -0.3035 0.1876 -0.9342
vn 0.7946 0.1876 -0.5774
vn 0.4911 0.7947 0.3568
vn -0.1876 0.7947 0.5774
vn -0.6071 0.7947 -0.0000
vn -0.1876 0.7947 -0.5774
vn 0.4911 0.7947 -0.3568
vt 0.673900 0.544100
vt 0.505700 0.432900
vt 0.673100 0.191700
vt 0.516200 0.784800
vt 0.841800 0.431100
vt 0.832100 0.783100
vt 0.341800 0.568900
vt 0.332100 0.216900
vt 1.016200 0.215200
vt 1.005700 0.567100
vt 1.173100 0.808300
vt 0.173100 0.808300
vt 0.173900 0.455900
vt 0.016200 0.215200
vt 0.005700 0.567100
s 0
usemtl Material
f 1/1/1 2/2/1 3/3/1
f 2/2/2 1/1/2 6/4/2
f 1/1/3 3/3/3 4/5/3
f 1/1/4 4/5/4 5/6/4
f 1/1/5 5/6/5 6/4/5
f 2/2/6 6/4/6 11/7/6
f 3/3/7 2/2/7 7/8/7
f 4/5/8 3/3/8 8/9/8
f 5/6/9 4/5/9 9/10/9
f 6/4/10 5/6/10 10/11/10
f 2/2/11 11/7/11 7/8/11
f 3/3/12 7/8/12 8/9/12
f 4/5/13 8/9/13 9/10/13
f 5/6/14 9/10/14 10/11/14
f 6/4/15 10/12/15 11/7/15
f 7/8/16 11/7/16 12/13/16
f 8/14/17 7/8/17 12/13/17
f 9/15/18 8/14/18 12/13/18
f 10/12/19 9/15/19 12/13/19
f 11/7/20 10/12/20 12/13/20
